<svg height="512pt" viewBox="0 -72 512 512" width="512pt" xmlns="http://www.w3.org/2000/svg"><path d="m304.199219 367.398438h-96.398438c-43.707031 0-79.269531-35.558594-79.269531-79.265626v-16.082031c0-70.390625 56.941406-127.449219 127.453125-127.449219 70.546875 0 127.484375 57.050782 127.484375 127.449219v16.082031c0 43.710938-35.5625 79.265626-79.269531 79.265626zm0 0" fill="#db8a53"/><path d="m448.800781 238.867188c-34.851562 0-63.199219-28.351563-63.199219-63.199219 0-34.847657 28.351563-63.199219 63.199219-63.199219 34.847657 0 63.199219 28.351562 63.199219 63.199219 0 34.847656-28.351562 63.199219-63.199219 63.199219zm0 0" fill="#c25c3d"/><path d="m336.332031 126.398438c-34.847656 0-63.199219-28.351563-63.199219-63.199219 0-34.847657 28.351563-63.199219 63.199219-63.199219 34.847657 0 63.199219 28.351562 63.199219 63.199219 0 34.847656-28.347656 63.199219-63.199219 63.199219zm0 0" fill="#c25c3d"/><path d="m175.667969 126.398438c-34.851563 0-63.199219-28.351563-63.199219-63.199219 0-34.847657 28.351562-63.199219 63.199219-63.199219 34.847656 0 63.199219 28.351562 63.199219 63.199219 0 34.847656-28.351563 63.199219-63.199219 63.199219zm0 0" fill="#db8a53"/><path d="m63.199219 238.867188c-34.847657 0-63.199219-28.351563-63.199219-63.199219 0-34.847657 28.351562-63.199219 63.199219-63.199219 34.847656 0 63.199219 28.351562 63.199219 63.199219 0 34.847656-28.347657 63.199219-63.199219 63.199219zm0 0" fill="#db8a53"/><path d="m256 144.601562v222.800782h48.199219c43.707031 0 79.269531-35.558594 79.269531-79.269532v-16.082031c0-70.394531-56.929688-127.441406-127.46875-127.449219zm0 0" fill="#c25c3d"/></svg>