<svg width="512" height="512" viewBox="0 0 512 512" fill="none" xmlns="http://www.w3.org/2000/svg">
<rect width="512" height="512" fill="white"/>
<g clip-path="url(#clip0)">
<path d="M275.354 83.5662C271.054 76.6537 262.561 73.6456 254.882 76.3477C221.439 88.1165 146.153 120.792 130.169 180.731V180.732L130.224 180.768L138.574 214.312L270.809 273.053L404.368 255.068C458.512 140.026 304.204 129.947 275.354 83.5662Z" fill="#F3BDAE"/>
<path d="M157.01 198.281L156.954 198.245C172.938 138.306 248.224 105.631 281.668 93.8619C282.33 93.629 282.999 93.4539 283.67 93.3045C280.305 90.2181 277.485 86.9926 275.355 83.5673C271.055 76.6548 262.562 73.6466 254.883 76.3498C221.441 88.1186 146.154 120.794 130.17 180.733L130.225 180.769L138.575 214.313L163.789 225.513L157.01 198.281Z" fill="#ED9B83"/>
<path d="M130.17 180.732C130.17 180.732 47.0824 220.395 70.519 284.2L66.3529 377.029L259.658 387.579L460.519 366.479C556.113 202.935 166.384 230.741 130.17 180.732V180.732Z" fill="#ED9B83"/>
<path d="M490.164 371.173C393.036 299.636 85.6853 336.042 70.519 284.2C70.519 284.2 -17.239 345.755 3.04316 427.636C9.03161 451.812 30.7983 468.753 55.704 468.753H457.459C509.523 468.753 532.085 402.049 490.164 371.173Z" fill="#E7886E"/>
<path d="M256 416.287C268.295 416.287 278.261 405.134 278.261 391.376C278.261 377.618 268.295 366.465 256 366.465C243.705 366.465 233.739 377.618 233.739 391.376C233.739 405.134 243.705 416.287 256 416.287Z" fill="#423E4F"/>
<path d="M142.342 450.432C165.504 450.432 184.28 435.48 184.28 417.036C184.28 398.592 165.504 383.639 142.342 383.639C119.181 383.639 100.405 398.592 100.405 417.036C100.405 435.48 119.181 450.432 142.342 450.432Z" fill="#F7CAC9"/>
<path d="M369.658 450.432C392.819 450.432 411.595 435.48 411.595 417.036C411.595 398.592 392.819 383.639 369.658 383.639C346.496 383.639 327.72 398.592 327.72 417.036C327.72 435.48 346.496 450.432 369.658 450.432Z" fill="#F7CAC9"/>
<path d="M149.354 384.462C145.087 384.462 141.627 381.002 141.627 376.735V360.469C141.627 356.202 145.087 352.742 149.354 352.742C153.621 352.742 157.08 356.202 157.08 360.469V376.735C157.08 381.002 153.621 384.462 149.354 384.462Z" fill="#423E4F"/>
<path d="M362.646 384.462C358.379 384.462 354.92 381.002 354.92 376.735V360.469C354.92 356.202 358.379 352.742 362.646 352.742C366.913 352.742 370.373 356.202 370.373 360.469V376.735C370.373 381.002 366.913 384.462 362.646 384.462Z" fill="#423E4F"/>
<path d="M101.862 63.8486C96.7989 48.2114 80.0173 39.6393 64.3801 44.7027C48.743 49.766 40.1709 66.5466 45.2342 82.1848C50.2976 97.8229 72.2147 122.256 87.8518 117.192C103.49 112.128 106.926 79.4857 101.862 63.8486V63.8486Z" fill="#D6D6D4"/>
<path d="M54.4307 71.3823C39.7928 63.9052 21.8656 69.7103 14.3896 84.3481C6.91253 98.986 12.7176 116.913 27.3554 124.389C41.9933 131.866 74.7685 133.645 82.2445 119.008C89.7216 104.371 69.0685 78.8593 54.4307 71.3823Z" fill="#E4E4E4"/>
<path d="M110.343 129.061C117.824 114.41 112.012 96.468 97.3615 88.9863C82.7105 81.5046 64.7684 87.3165 57.2867 101.967C49.805 116.618 55.6168 134.561 70.2678 142.042C84.9188 149.524 102.861 143.712 110.343 129.061Z" fill="#423E4F"/>
<path d="M401.9 190.561C406.964 174.924 423.745 166.352 439.383 171.415C455.02 176.478 463.592 193.259 458.528 208.897C453.465 224.535 431.548 248.968 415.911 243.905C400.273 238.84 396.837 206.198 401.9 190.561V190.561Z" fill="#D6D6D4"/>
<path d="M449.331 198.095C463.969 190.618 481.896 196.423 489.372 211.06C496.849 225.698 491.044 243.625 476.406 251.101C461.768 258.579 428.993 260.358 421.517 245.72C414.041 231.083 434.693 205.571 449.331 198.095V198.095Z" fill="#E4E4E4"/>
<path d="M433.774 268.843C448.425 261.362 454.237 243.42 446.755 228.769C439.273 214.118 421.331 208.306 406.68 215.787C392.029 223.269 386.217 241.211 393.699 255.862C401.181 270.513 419.123 276.325 433.774 268.843Z" fill="#423E4F"/>
<path d="M113.533 312.93C73.4828 228.288 156.954 198.245 156.954 198.245L155.027 195.171C142.994 191.1 134.289 186.421 130.17 180.732C130.17 180.732 47.0824 220.395 70.519 284.2L66.3529 310.888L113.533 312.93Z" fill="#E7886E"/>
<path d="M110.589 306.266C88.2453 301.389 73.5477 294.557 70.518 284.2C70.518 284.2 -17.2401 345.755 3.04213 427.636C9.03058 451.812 30.7973 468.753 55.7029 468.753C25.0355 362.308 110.588 306.266 110.589 306.266Z" fill="#E27858"/>
</g>
<defs>
<clipPath id="clip0">
<rect width="512" height="512" fill="white"/>
</clipPath>
</defs>
</svg>
