<svg width="464" height="464" viewBox="0 0 464 464" fill="none" xmlns="http://www.w3.org/2000/svg">
<rect width="464" height="464" fill="white"/>
<path d="M152 48L104 136V400C104 417.672 118.328 432 136 432H360V136L408 48H152Z" fill="#519ABA"/>
<path d="M464 136V400C464 417.672 449.672 432 432 432H360V136L408 48L464 136Z" fill="#F7CAC9"/>
<path d="M152 0H408V48H152V0Z" fill="#FFC24F"/>
<path d="M360 360V432H432C449.672 432 464 417.672 464 400V256L360 360Z" fill="#F7CAC9"/>
<path d="M208 360H200C200.02 350.484 194.395 341.863 185.68 338.047C176.965 334.227 166.816 335.937 159.832 342.398C159.035 329.824 148.602 320.035 136 320.035C123.398 320.035 112.965 329.824 112.168 342.398C105.184 335.937 95.0352 334.227 86.3203 338.047C77.6055 341.863 71.9805 350.484 72 360H64C50.7461 360 40 370.746 40 384C40 397.254 50.7461 408 64 408H208C221.254 408 232 397.254 232 384C232 370.746 221.254 360 208 360Z" fill="#FFC24F"/>
<path d="M272 464H0L24 392H248L272 464Z" fill="#F7CAC9"/>
<path d="M392 352H432V384H392V352Z" fill="#FFC24F"/>
<path d="M288 392H336V408H288V392Z" fill="#3D758E"/>
<path d="M288 360H336V376H288V360Z" fill="#3D758E"/>
<path d="M384 312H424V328H384V312Z" fill="#F8BAB9"/>
<path d="M384 280H440V296H384V280Z" fill="#F8BAB9"/>
<path d="M384 248H440V264H384V248Z" fill="#F8BAB9"/>
<path d="M384 216H408V232H384V216Z" fill="#F8BAB9"/>
<path d="M424 216H440V232H424V216Z" fill="#F8BAB9"/>
<path d="M384 136H440V152H384V136Z" fill="#F8BAB9"/>
<path d="M384 168H440V184H384V168Z" fill="#F8BAB9"/>
<path d="M248 392H205.602L184 464H272L248 392Z" fill="#F8BAB9"/>
<path d="M221.309 169.415C221.309 164.822 237.109 155.635 244.252 168.816C247.282 163.824 265.636 162.026 267.195 175.607C274.77 172.811 290.441 177.164 285.593 188.987C292.952 187.589 308.189 195.018 299.878 207.161C305.938 208.426 316.198 213.711 308.752 224.735C313.153 224.935 321.955 227.491 321.955 236.119C331.912 232.924 347.669 245.146 332.777 255.691C341.652 256.689 351.478 270.11 333.643 277.459C342.95 291.239 321.912 305.698 310.484 289.242C306.011 294.035 295.238 299.787 290.043 284.449C291.948 304.42 288.123 309.013 275.378 302.996C276.243 309.853 261.784 319.398 248.148 307.815C243.675 314.472 231.525 324.032 218.711 309.013C213.084 313.34 195.965 318.451 191.561 302.996L191.406 302.959C186.684 301.836 178.298 299.841 178.534 292.541C173.278 296.777 162.953 298.989 153.345 292.038C146.78 297.297 125.424 300.426 131.701 277.459C124.125 274.663 112.87 264.678 129.969 256.09C125.568 250.165 121.701 237.477 141.441 234.122C141.513 230.993 144.168 224.256 154.211 222.339C152.407 218.478 152.176 209.997 165.682 206.961C162.58 201.303 160.921 189.826 179.102 189.187C177.443 182.929 179.145 171.612 199.231 176.405C197.067 171.213 208.495 159.031 221.309 169.415Z" fill="#E3662C"/>
<path d="M308.752 224.735C316.198 213.711 305.938 208.426 299.878 207.161C308.189 195.018 292.952 187.589 285.593 188.987C290.441 177.164 274.77 172.811 267.195 175.607C265.636 162.026 247.282 163.824 244.252 168.816C237.109 155.635 221.309 164.822 221.309 169.415C208.495 159.031 197.067 171.213 199.231 176.405C179.145 171.612 177.443 182.929 179.102 189.187C160.921 189.826 162.58 201.303 165.682 206.961C152.176 209.997 152.407 218.478 154.211 222.339M308.752 224.735C313.153 224.935 321.955 227.491 321.955 236.119C331.912 232.924 347.669 245.146 332.777 255.691C341.652 256.689 351.478 270.11 333.643 277.459C342.95 291.239 321.912 305.698 310.484 289.242C306.011 294.035 295.238 299.787 290.043 284.449M308.752 224.735C304.969 225.476 297.402 228.391 297.402 234.122C291.991 230.701 269.697 240.26 283.55 257.062C276.623 269.444 275.974 284.449 290.043 284.449M290.043 284.449C291.948 304.42 288.123 309.013 275.378 302.996C276.243 309.853 261.784 319.398 248.148 307.815C243.675 314.472 231.525 324.032 218.711 309.013C213.084 313.34 195.965 318.451 191.561 302.996C185.483 301.549 172.882 298.689 181.388 284.449M181.388 284.449C185.622 291.039 168.583 303.062 153.345 292.038C146.78 297.297 125.424 300.426 131.701 277.459C124.125 274.663 112.87 264.678 129.969 256.09C125.568 250.165 121.701 237.477 141.441 234.122C141.513 230.993 144.168 224.256 154.211 222.339M181.388 284.449C196.702 274.662 185.852 260.6 181.388 255.691C193.336 240.374 180.017 235.062 170.566 234.122C170.219 224.237 159.518 222.148 154.211 222.339" stroke="black" stroke-width="6"/>
<ellipse cx="204.823" cy="245.584" rx="8.82339" ry="10.5836" fill="black"/>
<ellipse cx="258.352" cy="245.584" rx="8.82339" ry="10.5836" fill="black"/>
<path d="M235.993 288.257C234.022 291.117 229.806 291.145 227.797 288.31L223.702 282.531C221.364 279.232 223.705 274.667 227.749 274.64L235.864 274.587C239.907 274.561 242.308 279.096 240.013 282.425L235.993 288.257Z" fill="black"/>
</svg>
