<svg width="595" height="842" viewBox="0 0 595 842" fill="none" xmlns="http://www.w3.org/2000/svg">
<rect width="595" height="842" fill="#E5E5E5"/>
<rect width="595" height="842" fill="white"/>
<circle cx="297" cy="421" r="131" fill="#519ABA"/>
<path d="M299.023 430.469H227.539L211.484 475H188.281L253.438 304.375H273.125L338.398 475H315.312L299.023 430.469ZM234.336 411.953H292.344L263.281 332.148L234.336 411.953Z" fill="white"/>
<path d="M344.289 373.375H366.906V494.195C366.906 510.523 361.984 523.297 352.141 532.516C342.375 541.734 329.328 546.344 313 546.344C296.047 546.344 282.844 542.008 273.391 533.336C263.938 524.664 259.211 512.516 259.211 496.891H281.711C281.711 506.656 284.367 514.273 289.68 519.742C295.07 525.211 302.844 527.945 313 527.945C322.297 527.945 329.797 525.016 335.5 519.156C341.281 513.297 344.211 505.094 344.289 494.547V373.375Z" fill="white"/>
</svg>
