<svg width="400" height="384" viewBox="0 0 400 384" fill="none" xmlns="http://www.w3.org/2000/svg">
<path d="M136.597 69.7588C140.834 58.1397 154.867 53.6015 165.105 60.5389L217.549 96.073C220.504 98.0755 223.964 99.2049 227.532 99.3316L290.84 101.582C303.199 102.021 311.852 113.964 308.418 125.845L290.829 186.702C289.838 190.132 289.833 193.771 290.814 197.204L308.238 258.109C311.64 269.999 302.955 281.919 290.594 282.324L227.28 284.402C223.712 284.519 220.249 285.639 217.288 287.633L164.748 323.025C154.491 329.934 140.471 325.358 136.266 313.727L114.724 254.154C113.511 250.797 111.375 247.85 108.563 245.65L58.6686 206.618C48.9275 198.998 48.9476 184.25 58.7093 176.657L108.71 137.761C111.528 135.569 113.671 132.627 114.894 129.273L136.597 69.7588Z" fill="#F7CAC9"/>
<path d="M152.961 69.7588C157.198 58.1397 171.23 53.6015 181.468 60.5389L233.912 96.073C236.867 98.0755 240.327 99.2049 243.895 99.3316L307.203 101.582C319.563 102.021 328.215 113.964 324.781 125.845L307.192 186.702C306.201 190.132 306.196 193.771 307.178 197.204L324.601 258.109C328.003 269.999 319.318 281.919 306.957 282.324L243.643 284.402C240.075 284.519 236.612 285.639 233.651 287.633L181.112 323.025C170.854 329.934 156.834 325.358 152.629 313.727L131.088 254.154C129.874 250.797 127.739 247.85 124.927 245.65L75.0318 206.618C65.2907 198.998 65.3108 184.25 75.0725 176.657L125.073 137.761C127.891 135.569 130.034 132.627 131.257 129.273L152.961 69.7588Z" fill="#519ABA"/>
<path d="M208.534 230.087C208.137 231.378 207.939 232.67 207.939 233.961C207.939 235.054 208.087 235.998 208.385 236.793C208.683 237.488 208.981 238.084 209.279 238.581C209.676 238.978 209.924 239.276 210.024 239.475C211.017 240.468 211.513 241.462 211.513 242.455C211.513 242.654 211.414 243.151 211.215 243.945C210.818 245.336 209.924 246.33 208.534 246.926C207.243 247.422 205.208 247.671 202.428 247.671H167.129C165.044 247.671 163.406 247.323 162.214 246.628C161.122 245.932 160.576 244.988 160.576 243.796C160.576 243.2 160.725 242.555 161.023 241.859C161.32 241.064 161.718 240.468 162.214 240.071C162.81 239.574 163.604 239.028 164.597 238.432C166.186 237.538 167.477 236.544 168.47 235.452C169.462 234.359 170.306 232.571 171.001 230.087L174.874 217.272H151.639L147.618 225.766C145.93 229.441 145.086 232.322 145.086 234.408C145.086 235.601 145.285 236.594 145.682 237.389C146.079 238.084 146.675 238.829 147.469 239.624C148.164 240.419 148.611 241.114 148.809 241.71C149.107 242.207 149.157 242.902 148.958 243.796C148.561 245.286 147.717 246.33 146.426 246.926C145.235 247.422 143.299 247.671 140.618 247.671H118.426C116.142 247.671 114.404 247.273 113.213 246.479C112.021 245.585 111.426 244.442 111.426 243.051C111.426 241.462 112.021 240.22 113.213 239.326C114.305 238.332 115.993 237.289 118.277 236.197C121.256 234.706 123.639 233.266 125.426 231.875C127.213 230.385 128.752 228.348 130.043 225.766L156.554 170.779C160.625 162.236 165.391 156.076 170.853 152.301C176.413 148.427 183.711 146.49 192.747 146.49C202.875 146.49 210.719 148.576 216.279 152.748C221.84 156.821 224.62 162.534 224.62 169.885C224.62 172.965 224.123 176.144 223.13 179.422L208.534 230.087ZM179.342 202.37L187.236 176.144C187.633 174.951 187.832 173.71 187.832 172.418C187.832 170.531 187.286 169.14 186.193 168.246C185.2 167.252 183.761 166.756 181.874 166.756C179.491 166.756 177.456 167.451 175.768 168.842C174.08 170.233 172.392 172.716 170.704 176.293L158.491 202.37H179.342Z" fill="#F7CAC9"/>
<path d="M275.26 167.203C275.459 166.607 275.558 165.812 275.558 164.818C275.558 163.229 275.112 161.937 274.218 160.944C273.424 159.951 272.133 158.858 270.345 157.666C268.856 156.573 267.764 155.629 267.069 154.834C266.473 154.04 266.324 153.096 266.622 152.003C266.92 150.612 267.665 149.669 268.856 149.172C270.048 148.675 271.934 148.427 274.516 148.427H316.815C318.9 148.427 320.489 148.775 321.581 149.47C322.772 150.165 323.368 151.059 323.368 152.152C323.368 152.649 323.219 153.295 322.921 154.089C322.623 154.785 322.176 155.431 321.581 156.027C321.084 156.523 320.588 156.921 320.091 157.219C319.694 157.417 319.396 157.616 319.198 157.815C317.609 158.709 316.318 159.702 315.325 160.795C314.332 161.888 313.488 163.577 312.793 165.862L298.197 217.421C295.218 227.951 290.154 235.799 283.005 240.965C275.856 246.032 266.572 248.565 255.154 248.565C247.508 248.565 241.004 247.472 235.642 245.286C230.38 243.002 226.408 239.972 223.727 236.197C221.046 232.422 219.706 228.299 219.706 223.828C219.706 221.643 220.004 219.507 220.6 217.421C221.89 212.95 224.075 209.573 227.153 207.288C230.33 205.003 233.855 203.86 237.728 203.86C242.196 203.86 245.621 205.201 248.004 207.884C250.388 210.566 251.579 213.993 251.579 218.166C251.579 220.252 251.281 222.338 250.685 224.424C249.494 228.597 247.26 231.676 243.983 233.663C245.572 234.657 247.409 235.153 249.494 235.153C251.579 235.153 253.416 234.11 255.005 232.024C256.593 229.938 257.934 227.007 259.026 223.232L275.26 167.203Z" fill="#F7CAC9"/>
<circle cx="346.744" cy="191.683" r="24.9344" fill="#F7CAC9"/>
<circle cx="355.315" cy="191.683" r="24.9344" fill="#519ABA"/>
</svg>
