<svg width="460" height="442" viewBox="0 0 460 442" fill="none" xmlns="http://www.w3.org/2000/svg">
<path d="M158.339 76.7903C162.576 65.1712 176.608 60.633 186.846 67.5704L250.859 110.944C253.815 112.946 257.275 114.076 260.842 114.202L338.117 116.949C350.477 117.388 359.129 129.331 355.695 141.212L334.226 215.495C333.234 218.925 333.229 222.564 334.211 225.996L355.479 300.337C358.88 312.228 350.195 324.147 337.835 324.553L260.553 327.089C256.985 327.206 253.522 328.326 250.561 330.321L186.431 373.52C176.173 380.429 162.153 375.853 157.948 364.222L131.654 291.507C130.441 288.149 128.305 285.202 125.493 283.003L64.5913 235.36C54.8503 227.74 54.8703 212.992 64.632 205.398L125.664 157.921C128.481 155.729 130.625 152.788 131.848 149.434L158.339 76.7903Z" fill="#F7CAC9"/>
<path d="M177.156 76.7903C181.393 65.1712 195.426 60.633 205.664 67.5704L269.677 110.944C272.632 112.946 276.092 114.076 279.66 114.202L356.934 116.949C369.294 117.388 377.947 129.331 374.513 141.212L353.043 215.495C352.052 218.925 352.047 222.564 353.029 225.996L374.296 300.337C377.698 312.228 369.013 324.147 356.652 324.553L279.371 327.089C275.803 327.206 272.34 328.326 269.379 330.321L205.248 373.52C194.991 380.429 180.971 375.853 176.765 364.222L150.472 291.507C149.258 288.149 147.123 285.202 144.311 283.003L83.409 235.36C73.668 227.74 73.688 212.992 83.4497 205.398L144.481 157.921C147.299 155.729 149.442 152.788 150.665 149.434L177.156 76.7903Z" fill="#519ABA"/>
<path d="M239.814 264.6C239.358 266.085 239.129 267.57 239.129 269.056C239.129 270.312 239.301 271.398 239.643 272.312C239.986 273.111 240.328 273.797 240.671 274.368C241.128 274.825 241.413 275.168 241.527 275.396C242.669 276.539 243.24 277.681 243.24 278.823C243.24 279.052 243.126 279.623 242.897 280.537C242.441 282.137 241.413 283.279 239.814 283.964C238.33 284.536 235.989 284.821 232.792 284.821H192.198C189.8 284.821 187.916 284.421 186.546 283.622C185.29 282.822 184.662 281.737 184.662 280.366C184.662 279.68 184.833 278.938 185.176 278.138C185.518 277.224 185.975 276.539 186.546 276.082C187.231 275.51 188.145 274.882 189.287 274.197C191.114 273.168 192.598 272.026 193.74 270.769C194.882 269.513 195.852 267.456 196.652 264.6L201.105 249.862H174.385L169.761 259.63C167.819 263.857 166.849 267.171 166.849 269.57C166.849 270.941 167.077 272.083 167.534 272.997C167.991 273.797 168.676 274.654 169.589 275.568C170.389 276.481 170.903 277.281 171.131 277.967C171.473 278.538 171.531 279.338 171.302 280.366C170.845 282.079 169.875 283.279 168.39 283.964C167.02 284.536 164.794 284.821 161.71 284.821H136.19C133.563 284.821 131.565 284.364 130.195 283.45C128.825 282.422 128.139 281.108 128.139 279.509C128.139 277.681 128.825 276.253 130.195 275.225C131.451 274.082 133.392 272.883 136.018 271.626C139.444 269.912 142.184 268.256 144.24 266.656C146.295 264.943 148.065 262.601 149.55 259.63L180.037 196.396C184.719 186.571 190.2 179.488 196.48 175.146C202.875 170.691 211.268 168.463 221.659 168.463C233.306 168.463 242.327 170.862 248.721 175.66C255.116 180.344 258.313 186.914 258.313 195.368C258.313 198.909 257.742 202.565 256.6 206.335L239.814 264.6ZM206.243 232.726L215.321 202.565C215.778 201.194 216.006 199.766 216.006 198.281C216.006 196.11 215.378 194.511 214.122 193.483C212.98 192.34 211.325 191.769 209.155 191.769C206.415 191.769 204.074 192.569 202.133 194.168C200.192 195.768 198.25 198.624 196.309 202.736L182.264 232.726H206.243Z" fill="#F7CAC9"/>
<path d="M316.55 192.283C316.778 191.598 316.892 190.684 316.892 189.541C316.892 187.713 316.378 186.228 315.351 185.086C314.437 183.943 312.953 182.687 310.897 181.316C309.184 180.059 307.928 178.974 307.129 178.06C306.444 177.146 306.273 176.06 306.615 174.804C306.958 173.204 307.814 172.119 309.184 171.548C310.555 170.976 312.724 170.691 315.693 170.691H364.337C366.735 170.691 368.562 171.091 369.818 171.89C371.188 172.69 371.873 173.718 371.873 174.975C371.873 175.546 371.702 176.289 371.359 177.203C371.017 178.002 370.503 178.745 369.818 179.431C369.247 180.002 368.676 180.459 368.105 180.801C367.648 181.03 367.306 181.258 367.077 181.487C365.25 182.515 363.766 183.658 362.624 184.914C361.482 186.171 360.512 188.113 359.712 190.741L342.927 250.034C339.501 262.144 333.678 271.169 325.456 277.11C317.235 282.936 306.558 285.85 293.427 285.85C284.634 285.85 277.155 284.593 270.989 282.079C264.937 279.452 260.369 275.967 257.286 271.626C254.203 267.285 252.662 262.544 252.662 257.403C252.662 254.889 253.004 252.433 253.69 250.034C255.174 244.893 257.686 241.008 261.226 238.381C264.88 235.753 268.933 234.439 273.387 234.439C278.525 234.439 282.465 235.982 285.205 239.066C287.946 242.151 289.316 246.092 289.316 250.891C289.316 253.29 288.973 255.689 288.288 258.088C286.918 262.886 284.349 266.428 280.581 268.713C282.408 269.855 284.52 270.426 286.918 270.426C289.316 270.426 291.428 269.227 293.255 266.828C295.082 264.429 296.624 261.058 297.88 256.717L316.55 192.283Z" fill="#F7CAC9"/>
<circle cx="398.756" cy="220.436" r="28.6746" fill="#F7CAC9"/>
<circle cx="408.612" cy="220.436" r="28.6746" fill="#519ABA"/>
</svg>
