<svg width="514" height="493" viewBox="0 0 514 493" fill="none" xmlns="http://www.w3.org/2000/svg">
<path d="M177.669 83.0421C181.906 71.4231 195.938 66.8848 206.177 73.8222L280.476 124.165C283.432 126.168 286.892 127.297 290.459 127.424L380.152 130.612C392.511 131.051 401.164 142.994 397.73 154.875L372.81 241.095C371.819 244.525 371.814 248.164 372.796 251.596L397.481 337.884C400.883 349.774 392.198 361.694 379.837 362.099L290.136 365.043C286.568 365.16 283.105 366.28 280.145 368.274L205.709 418.415C195.451 425.325 181.431 420.749 177.226 409.118L146.707 324.717C145.493 321.36 143.358 318.413 140.546 316.213L69.8573 260.915C60.1163 253.294 60.1363 238.547 69.8981 230.953L140.737 175.847C143.555 173.655 145.698 170.713 146.921 167.359L177.669 83.0421Z" fill="#F7CAC9"/>
<path d="M198.669 83.0421C202.906 71.4231 216.938 66.8848 227.177 73.8222L301.477 124.165C304.432 126.168 307.892 127.297 311.459 127.424L401.152 130.612C413.511 131.051 422.164 142.994 418.73 154.875L393.81 241.095C392.819 244.525 392.814 248.164 393.796 251.596L418.481 337.884C421.883 349.774 413.198 361.694 400.837 362.099L311.136 365.043C307.568 365.16 304.105 366.28 301.145 368.274L226.709 418.415C216.451 425.325 202.431 420.749 198.226 409.118L167.707 324.717C166.493 321.36 164.358 318.413 161.546 316.213L90.8573 260.915C81.1163 253.294 81.1363 238.547 90.8981 230.953L161.737 175.847C164.555 173.655 166.698 170.713 167.921 167.359L198.669 83.0421Z" fill="#519ABA"/>
<path d="M263.415 293.4C262.882 295.133 262.615 296.867 262.615 298.6C262.615 300.067 262.815 301.333 263.215 302.4C263.615 303.333 264.015 304.133 264.415 304.8C264.948 305.333 265.282 305.733 265.415 306C266.748 307.333 267.415 308.667 267.415 310C267.415 310.267 267.282 310.933 267.015 312C266.482 313.867 265.282 315.2 263.415 316C261.682 316.667 258.948 317 255.215 317H207.815C205.015 317 202.815 316.533 201.215 315.6C199.748 314.667 199.015 313.4 199.015 311.8C199.015 311 199.215 310.133 199.615 309.2C200.015 308.133 200.548 307.333 201.215 306.8C202.015 306.133 203.082 305.4 204.415 304.6C206.548 303.4 208.282 302.067 209.615 300.6C210.948 299.133 212.082 296.733 213.015 293.4L218.215 276.2H187.015L181.615 287.6C179.348 292.533 178.215 296.4 178.215 299.2C178.215 300.8 178.482 302.133 179.015 303.2C179.548 304.133 180.348 305.133 181.415 306.2C182.348 307.267 182.948 308.2 183.215 309C183.615 309.667 183.682 310.6 183.415 311.8C182.882 313.8 181.748 315.2 180.015 316C178.415 316.667 175.815 317 172.215 317H142.415C139.348 317 137.015 316.467 135.415 315.4C133.815 314.2 133.015 312.667 133.015 310.8C133.015 308.667 133.815 307 135.415 305.8C136.882 304.467 139.148 303.067 142.215 301.6C146.215 299.6 149.415 297.667 151.815 295.8C154.215 293.8 156.282 291.067 158.015 287.6L193.615 213.8C199.082 202.333 205.482 194.067 212.815 189C220.282 183.8 230.082 181.2 242.215 181.2C255.815 181.2 266.348 184 273.815 189.6C281.282 195.067 285.015 202.733 285.015 212.6C285.015 216.733 284.348 221 283.015 225.4L263.415 293.4ZM224.215 256.2L234.815 221C235.348 219.4 235.615 217.733 235.615 216C235.615 213.467 234.882 211.6 233.415 210.4C232.082 209.067 230.148 208.4 227.615 208.4C224.415 208.4 221.682 209.333 219.415 211.2C217.148 213.067 214.882 216.4 212.615 221.2L196.215 256.2H224.215Z" fill="#F7CAC9"/>
<path d="M353.016 209C353.283 208.2 353.416 207.133 353.416 205.8C353.416 203.667 352.816 201.933 351.616 200.6C350.55 199.267 348.816 197.8 346.416 196.2C344.416 194.733 342.95 193.467 342.016 192.4C341.216 191.333 341.016 190.067 341.416 188.6C341.816 186.733 342.816 185.467 344.416 184.8C346.016 184.133 348.55 183.8 352.016 183.8H408.816C411.616 183.8 413.75 184.267 415.216 185.2C416.816 186.133 417.616 187.333 417.616 188.8C417.616 189.467 417.416 190.333 417.016 191.4C416.616 192.333 416.016 193.2 415.216 194C414.55 194.667 413.883 195.2 413.216 195.6C412.683 195.867 412.283 196.133 412.016 196.4C409.883 197.6 408.15 198.933 406.816 200.4C405.483 201.867 404.35 204.133 403.416 207.2L383.816 276.4C379.816 290.533 373.016 301.067 363.416 308C353.816 314.8 341.35 318.2 326.016 318.2C315.75 318.2 307.016 316.733 299.816 313.8C292.75 310.733 287.416 306.667 283.816 301.6C280.216 296.533 278.416 291 278.416 285C278.416 282.067 278.816 279.2 279.616 276.4C281.35 270.4 284.283 265.867 288.416 262.8C292.683 259.733 297.416 258.2 302.616 258.2C308.616 258.2 313.216 260 316.416 263.6C319.616 267.2 321.216 271.8 321.216 277.4C321.216 280.2 320.816 283 320.016 285.8C318.416 291.4 315.416 295.533 311.016 298.2C313.15 299.533 315.616 300.2 318.416 300.2C321.216 300.2 323.683 298.8 325.816 296C327.95 293.2 329.75 289.267 331.216 284.2L353.016 209Z" fill="#F7CAC9"/>
<circle cx="445" cy="246" r="32" fill="#F7CAC9"/>
<circle cx="456" cy="246" r="32" fill="#519ABA"/>
</svg>
