<svg height="512pt" viewBox="0 -80 512.00038 512" width="512pt" xmlns="http://www.w3.org/2000/svg"><path d="m418.113281 126.402344h-324.226562c-6.492188 0-12.246094-4.175782-14.257813-10.347656-2.015625-6.167969.167969-12.933594 5.410156-16.765626.335938-.246093.675782-.488281 1.019532-.722656 1.699218-9.550781 6.214844-19.101562 12.851562-26.8125 6.714844-7.710937 15.546875-13.5625 24.78125-16.628906 4.351563-8.730469 11.390625-16.644531 19.914063-22.132812 8.613281-5.492188 18.742187-8.609376 28.46875-8.949219 6.628906-7.160157 15.632812-12.765625 25.40625-15.628907 9.75-2.863281 20.332031-3.011718 29.761719-.585937 8.375-4.984375 18.582031-7.82421875 28.757812-7.82421875 10.179688 0 20.386719 2.83593775 28.761719 7.82421875 9.429687-2.425781 20.015625-2.273437 29.769531.589844 9.765625 2.859375 18.765625 8.464843 25.398438 15.625 9.722656.335937 19.839843 3.445312 28.40625 8.910156 8.570312 5.519531 15.617187 13.4375 19.972656 22.171875 9.230468 3.0625 18.054687 8.902344 24.730468 16.566406 6.679688 7.757813 11.203126 17.320313 12.90625 26.875.339844.234375.679688.476563 1.019532.726563 5.242187 3.828125 7.425781 10.59375 5.410156 16.765625-2.015625 6.167968-7.769531 10.34375-14.261719 10.34375zm0 0" fill="#c25c3d"/><path d="m426.964844 99.289062c-.339844-.246093-.679688-.488281-1.023438-.726562-1.703125-9.550781-6.226562-19.117188-12.90625-26.875-6.671875-7.660156-15.496094-13.5-24.726562-16.5625-4.355469-8.734375-11.402344-16.652344-19.972656-22.171875-8.570313-5.464844-18.6875-8.578125-28.410157-8.914063-6.628906-7.15625-15.628906-12.761718-25.394531-15.621093-9.757812-2.867188-20.34375-3.015625-29.773438-.589844-8.371093-4.988281-18.578124-7.828125-28.753906-7.828125v126.398438h162.109375c6.492188 0 12.246094-4.171876 14.257813-10.34375 2.015625-6.167969-.167969-12.933594-5.40625-16.765626zm0 0" fill="#aa4730"/><path d="m497 351.335938h-482c-4.347656 0-8.484375-1.890626-11.332031-5.171876-2.847657-3.285156-4.132813-7.648437-3.515625-11.949218l32.132812-224.933594c1.054688-7.390625 7.382813-12.878906 14.847656-12.878906h417.734376c7.464843 0 13.792968 5.488281 14.847656 12.878906l32.136718 224.933594c.613282 4.300781-.671874 8.664062-3.519531 11.949218-2.851562 3.28125-6.984375 5.171876-11.332031 5.171876zm0 0" fill="#9adb05"/><path d="m479.714844 109.277344c-1.054688-7.386719-7.382813-12.878906-14.847656-12.878906h-208.863282v254.933593h240.996094c4.347656 0 8.480469-1.886719 11.332031-5.171875 2.847657-3.285156 4.132813-7.644531 3.519531-11.949218zm0 0" fill="#83b904"/><path d="m187.289062 246.273438h137.417969c7.011719 0 13.484375 3.738281 16.992188 9.808593 3.988281 6.910157 11.40625 11.203125 19.359375 11.203125 12.355468 0 22.410156-10.050781 22.410156-22.40625 0-3.882812-1.050781-7.753906-3.039062-11.1875-3.511719-6.074218-3.515626-13.558594-.007813-19.632812 1.992187-3.449219 3.046875-7.324219 3.046875-11.203125 0-12.355469-10.054688-22.40625-22.410156-22.40625-7.953125 0-15.371094 4.289062-19.355469 11.199219-3.503906 6.070312-9.984375 9.8125-16.992187 9.8125h-137.421876c-7.007812 0-13.488281-3.742188-16.988281-9.8125-3.988281-6.910157-11.402343-11.199219-19.359375-11.199219-12.355468 0-22.410156 10.050781-22.410156 22.40625 0 3.878906 1.054688 7.753906 3.046875 11.203125 3.507813 6.074218 3.503906 13.558594-.007813 19.632812-1.988281 3.433594-3.039062 7.304688-3.039062 11.1875 0 12.355469 10.054688 22.40625 22.410156 22.40625 7.953125 0 15.371094-4.292968 19.363282-11.203125 3.503906-6.070312 9.976562-9.808593 16.984374-9.808593zm0 0" fill="#fff"/><path d="m256.003906 246.273438h68.703125c7.011719 0 13.484375 3.738281 16.992188 9.808593 3.988281 6.910157 11.40625 11.203125 19.359375 11.203125 12.355468 0 22.410156-10.050781 22.410156-22.40625 0-3.882812-1.054688-7.753906-3.039062-11.1875-3.511719-6.074218-3.515626-13.558594-.007813-19.632812 1.992187-3.449219 3.046875-7.324219 3.046875-11.203125 0-12.355469-10.054688-22.40625-22.410156-22.40625-7.953125 0-15.371094 4.289062-19.355469 11.199219-3.503906 6.070312-9.984375 9.8125-16.992187 9.8125h-68.703126v44.8125zm0 0" fill="#f3eee9"/></svg>