<svg width="508" height="358" viewBox="0 0 508 358" fill="none" xmlns="http://www.w3.org/2000/svg">
<rect width="508" height="358" fill="white"/>
<path d="M37.8487 306.05C-9.48716 282.382 -4.27473 224.555 9.98508 167.55C10.7731 164.35 29.3487 84.05 40.3487 67.55C152.849 -49.45 439.849 9.04997 467.849 67.55C485.849 126.05 544.449 258.45 470.849 306.05C382.349 366.55 172.349 379.55 37.8487 306.05Z" fill="#F7CAC9"/>
<path d="M396.082 23.3243C395.16 22.8693 394.297 22.4278 393.5 22C394.366 22.3971 395.227 22.839 396.082 23.3243C414.82 32.5725 457.872 47.4145 465.422 66L493 144L505.5 199.369C508.333 219.578 512.214 281.671 465.422 310C429 329 351.5 356.5 273 356.5C203 361 121.5 346.5 43.0407 305.817C-35.4188 265.133 198.5 348.073 250 336.5C322.154 331.85 472.621 297.661 465.422 199.369C458.259 141.889 432.241 43.8464 396.082 23.3243Z" fill="#F8BAB9"/>
<ellipse cx="254.5" cy="101" rx="180.5" ry="63" fill="#F8BAB9"/>
<path d="M413.254 115.196C436.5 140 324 160.812 254.306 160.812C184.612 160.812 75 144.5 95.1193 116.036C104.5 92.5 166.217 70.6516 254.067 70.4198C341.918 70.1879 406 93 413.254 115.196Z" fill="#2196F3"/>
<path d="M370.489 94.8451C380 119 311.935 135.613 236.609 140.785C161.282 145.958 112.5 133 93.5 125C93.5 94.8451 156.259 72.8083 231.586 67.6358C297 67.6358 377 77 370.489 94.8451Z" fill="#64B5F6"/>
<path d="M168.5 103C176 102 212.5 112 212.5 112C212.5 112 249 105 254.5 105C260 105 299.5 112 299.5 112C299.5 112 331.5 103 337.5 105C343.5 107 343.5 105 347 112C350.5 119 343.5 121 343.5 121C343.5 121 301.5 127 297 127C292.5 127 254.5 119.5 254.5 119.5L212.5 127C212.5 127 168.5 125 163.5 119.5C158.5 114 161 104 168.5 103Z" fill="#BBDEFB"/>
<path d="M295 256C304 280 280.51 310 254 310C227.49 310 206.146 286.5 212.5 256C217.5 232 248 199.5 254 195C263.5 197.5 291 240 295 256Z" fill="#2196F3"/>
<path d="M265 259.5C259.867 280.621 233.947 295.705 217 289C203.5 266 212.102 252.306 217 243C227 224 240.5 209 248 200.5C257.5 214 271.805 231.5 265 259.5Z" fill="#64B5F6"/>
</svg>
