<svg height="512pt" viewBox="0 -48 512 512" width="512pt" xmlns="http://www.w3.org/2000/svg"><path d="m464.867188 415.601562h-417.734376c-26.378906 0-47.132812-21.480468-47.132812-47.132812 0-21.1875 8.246094-41.089844 23.214844-56.0625 11.363281-11.371094 25.585937-18.859375 41.050781-21.800781v-18.539063c0-38.582031 27.707031-70.8125 64.269531-77.84375v-18.558594c0-38.875 28.125-71.300781 65.097656-77.996093 6.691407-54.847657 53.40625-97.667969 110.535157-97.667969 8.285156 0 15.015625 6.714844 15.015625 15v82.820312c36.570312 7.03125 64.285156 39.273438 64.285156 77.863282v18.539062c36.558594 7.03125 64.265625 39.261719 64.265625 77.84375v18.539063c15.46875 2.941406 29.691406 10.433593 41.054687 21.804687 14.964844 14.96875 23.210938 34.871094 23.210938 56.039063 0 25.554687-20.640625 47.152343-47.132812 47.152343zm0 0" fill="#c25c3d"/><path d="m447.734375 290.605469v-18.539063c0-38.578125-27.707031-70.8125-64.269531-77.84375v-18.539062c0-38.589844-27.710938-70.832032-64.28125-77.859375v-82.824219c0-8.285156-6.730469-15-15.015625-15-17.285157 0-33.613281 3.925781-48.167969 10.910156v404.691406h208.863281c26.492188 0 47.136719-21.59375 47.136719-47.152343 0-21.167969-8.246094-41.070313-23.214844-56.039063-11.359375-11.371094-25.582031-18.859375-41.050781-21.804687zm0 0" fill="#aa4730"/><path d="m287.050781 97.820312h32.132813v-30h-32.132813c-8.285156 0-15 6.71875-15 15 0 8.285157 6.714844 15 15 15zm0 0" fill="#784132"/><path d="m304.199219 179.222656c0-8.28125-6.714844-15-15-15h-159.832031c-.542969 3.738282-.835938 7.558594-.835938 11.441406v18.558594h160.667969c8.285156 0 15-6.714844 15-15zm0 0" fill="#aa4730"/><path d="m256 194.222656h33.199219c8.285156 0 15-6.714844 15-15 0-8.28125-6.714844-15-15-15h-33.199219zm0 0" fill="#784132"/><path d="m446.894531 260.605469h-288.363281c-8.28125 0-15 6.71875-15 15 0 8.285156 6.71875 15 15 15h289.203125v-18.539063c0-3.890625-.296875-7.714844-.839844-11.460937zm0 0" fill="#aa4730"/><path d="m256 260.605469v30h191.734375v-18.539063c0-3.890625-.296875-7.714844-.839844-11.460937zm0 0" fill="#784132"/></svg>