<svg width="720" height="663" viewBox="0 0 720 663" fill="none" xmlns="http://www.w3.org/2000/svg">
<rect width="720" height="663" fill="white"/>
<ellipse cx="235.375" cy="134.562" rx="88.4339" ry="132.62" transform="rotate(-1.2801 235.375 134.562)" fill="#F7CAC9"/>
<ellipse cx="458.588" cy="136.723" rx="88.4339" ry="132.62" transform="rotate(-0.0665525 458.588 136.723)" fill="#F7CAC9"/>
<circle cx="97" cy="366" r="97" fill="#F7CAC9"/>
<circle cx="623" cy="366" r="97" fill="#F7CAC9"/>
<path d="M256.977 350.465C282.322 255.281 416.976 254.097 443.991 348.82L460.44 406.494C465.382 423.822 475.053 439.43 488.368 451.57L535.257 494.32C600.724 554.009 558.496 663 469.904 663H237.713C150.765 663 107.731 557.42 169.904 496.639L215.935 451.638C228.414 439.439 237.37 424.099 241.86 407.236L256.977 350.465Z" fill="#F7CAC9"/>
<path fill-rule="evenodd" clip-rule="evenodd" d="M360 663H469.904C558.496 663 600.724 554.009 535.257 494.32L488.368 451.57C475.053 439.43 465.382 423.822 460.44 406.494L443.991 348.82C431.62 305.445 396.68 282.181 360 278.843V663ZM547.022 136.62C547.107 209.864 507.583 269.286 458.742 269.343C409.901 269.399 370.239 210.069 370.154 136.825C370.069 63.5814 409.593 4.15949 458.434 4.10276C507.274 4.04603 546.937 63.376 547.022 136.62ZM720 366C720 419.572 676.572 463 623 463C569.428 463 526 419.572 526 366C526 312.428 569.428 269 623 269C676.572 269 720 312.428 720 366Z" fill="black" fill-opacity="0.12"/>
</svg>
