<svg width="600" height="600" viewBox="0 0 600 600" fill="none" xmlns="http://www.w3.org/2000/svg">
<rect width="600" height="600" fill="white"/>
<circle cx="300" cy="300" r="300" fill="#C4C4C4"/>
<ellipse cx="251.582" cy="139.292" rx="27.8562" ry="25.1385" fill="#E7E7E7"/>
<ellipse cx="251.582" cy="139.292" rx="27.8562" ry="25.1385" fill="#E7E7E7"/>
<ellipse cx="248.864" cy="460.657" rx="25.1385" ry="23.1003" fill="#E7E7E7"/>
<path d="M341.265 462.016C341.265 468.02 323.856 493.949 303.218 493.949C282.58 493.949 265.85 474.134 265.85 468.131C275.361 451.145 275.106 464.733 295.744 464.733C316.382 464.733 333.792 453.183 341.265 462.016Z" fill="#E7E7E7"/>
<ellipse cx="358.93" cy="460.657" rx="25.1385" ry="23.1003" fill="#E7E7E7"/>
<ellipse cx="202.664" cy="426.007" rx="29.215" ry="36.0092" fill="#E7E7E7"/>
<ellipse cx="405.131" cy="426.007" rx="29.215" ry="36.0092" fill="#E7E7E7"/>
<ellipse cx="515.197" cy="317.979" rx="31.9327" ry="27.1768" fill="#E7E7E7"/>
<ellipse cx="524.029" cy="368.256" rx="33.971" ry="28.5356" fill="#E7E7E7"/>
<ellipse cx="509.082" cy="413.098" rx="31.2533" ry="29.8945" fill="#E7E7E7"/>
<ellipse cx="458.805" cy="406.303" rx="24.4591" ry="31.2533" fill="#E7E7E7"/>
<ellipse cx="443.858" cy="366.218" rx="35.3298" ry="30.5739" fill="#E7E7E7"/>
<ellipse cx="443.858" cy="318.658" rx="35.3298" ry="33.2916" fill="#E7E7E7"/>
<ellipse cx="479.187" cy="290.802" rx="28.5356" ry="27.1768" fill="#E7E7E7"/>
<ellipse cx="161.898" cy="319.338" rx="37.3681" ry="32.6121" fill="#E7E7E7"/>
<ellipse cx="161.898" cy="364.859" rx="37.3681" ry="31.9327" fill="#E7E7E7"/>
<ellipse cx="141.516" cy="409.021" rx="31.9327" ry="33.971" fill="#E7E7E7"/>
<ellipse cx="93.277" cy="413.098" rx="31.2533" ry="29.8945" fill="#E7E7E7"/>
<ellipse cx="76.971" cy="368.256" rx="33.971" ry="28.5356" fill="#E7E7E7"/>
<ellipse cx="89.88" cy="320.017" rx="34.6504" ry="33.2916" fill="#E7E7E7"/>
<ellipse cx="124.53" cy="287.405" rx="33.971" ry="30.5739" fill="#E7E7E7"/>
<ellipse cx="450.652" cy="247.319" rx="32.6121" ry="28.5356" fill="#E7E7E7"/>
<ellipse cx="150.348" cy="247.319" rx="32.6121" ry="28.5356" fill="#E7E7E7"/>
<ellipse cx="426.193" cy="203.157" rx="36.6887" ry="29.215" fill="#E7E7E7"/>
<ellipse cx="392.901" cy="164.43" rx="33.2916" ry="25.8179" fill="#E7E7E7"/>
<ellipse cx="351.456" cy="139.292" rx="29.8945" ry="25.1385" fill="#E7E7E7"/>
<ellipse cx="301.859" cy="131.139" rx="27.8562" ry="25.1385" fill="#E7E7E7"/>
<ellipse cx="174.128" cy="203.157" rx="33.2916" ry="29.215" fill="#E7E7E7"/>
<ellipse cx="207.42" cy="164.43" rx="32.6121" ry="25.8179" fill="#E7E7E7"/>
<ellipse cx="306.615" cy="303.711" rx="171.214" ry="165.099" fill="#E7E7E7"/>
<ellipse cx="240.032" cy="325.453" rx="20.3826" ry="26.4974" fill="#C4C4C4"/>
<ellipse cx="363.686" cy="325.453" rx="20.3826" ry="26.4974" fill="#C4C4C4"/>
<path d="M278.759 385.921C270.378 377.286 276.496 362.821 288.53 362.821H315.712C328.044 362.821 333.88 378.028 324.713 386.278V386.278C323.974 386.944 323.31 387.69 322.735 388.502L313.302 401.818C312.479 402.98 311.941 404.32 311.731 405.729V405.729C310.406 414.626 298.339 416.387 294.526 408.241L292.824 404.605C292.507 403.928 292.117 403.287 291.661 402.694L278.759 385.921V385.921Z" fill="#C4C4C4"/>
<path d="M331.074 432.801C331.074 447.435 317.69 459.298 301.179 459.298C284.669 459.298 271.285 447.435 271.285 432.801C275.361 385.241 284.669 445.71 301.179 445.71C317.69 445.71 331.074 385.241 331.074 432.801Z" fill="#C4C4C4"/>
<path d="M308.272 400.202C308.429 417.055 294.652 430.848 277.501 431.008C260.35 431.168 246.15 418.223 246.146 400.189C261.773 372.332 258.376 415.815 277.501 415.815C294.652 415.655 301.085 381.48 308.272 400.202Z" fill="#C4C4C4"/>
<path d="M357.571 397.471C357.728 414.325 342.979 430.472 325.828 430.632C308.676 430.792 294.476 417.847 294.473 399.813C310.099 371.957 306.702 415.44 325.828 415.44C342.979 415.28 339.227 377.088 357.571 397.471Z" fill="#C4C4C4"/>
<ellipse cx="124.53" cy="356.026" rx="40.7652" ry="57.0712" fill="#E7E7E7"/>
<ellipse cx="477.829" cy="353.988" rx="51.6359" ry="71.3391" fill="#E7E7E7"/>
</svg>
